<svg xmlns="http://www.w3.org/2000/svg" viewBox="0 13.5 299.04998779296875 39.70000076293945" data-asc="0.965"><g fill="#ffffff"><g fill="#ffffff" transform="translate(0, 0)"><path d="M11.65 48.85Q9.15 48.85 7.18 48.60Q5.20 48.35 3.55 47.80Q1.90 47.25 0.25 46.40L0.25 39.80Q2.35 41.50 5.20 42.48Q8.05 43.45 10.95 43.45Q13.65 43.45 15.02 42.38Q16.40 41.30 16.40 39.30Q16.40 37.75 15.27 36.80Q14.15 35.85 12.30 35.15Q10.45 34.45 8.25 33.70Q6.70 33.15 5.22 32.48Q3.75 31.80 2.57 30.75Q1.40 29.70 0.70 28.13Q0 26.55 0 24.25Q0 22.40 0.70 20.60Q1.40 18.80 2.85 17.35Q4.30 15.90 6.63 15.05Q8.95 14.20 12.10 14.20Q14.15 14.20 15.68 14.45Q17.20 14.70 18.57 15.20Q19.95 15.70 21.50 16.45L21.50 23.05Q20.30 22.20 18.95 21.42Q17.60 20.65 16.07 20.15Q14.55 19.65 12.75 19.60Q10.95 19.55 9.65 20Q8.35 20.45 7.65 21.35Q6.95 22.25 6.95 23.50Q6.95 25.05 7.82 25.97Q8.70 26.90 10.25 27.50Q11.80 28.10 13.75 28.70Q15.70 29.30 17.45 30.05Q19.20 30.80 20.53 31.88Q21.85 32.95 22.60 34.55Q23.35 36.15 23.35 38.45Q23.35 41.25 22.07 43.63Q20.80 46 18.20 47.42Q15.60 48.85 11.65 48.85ZM40.20 48.85Q37.70 48.85 35.73 48.60Q33.75 48.35 32.10 47.80Q30.45 47.25 28.80 46.40L28.80 39.80Q30.90 41.50 33.75 42.48Q36.60 43.45 39.50 43.45Q42.20 43.45 43.58 42.38Q44.95 41.30 44.95 39.30Q44.95 37.75 43.83 36.80Q42.70 35.85 40.85 35.15Q39 34.45 36.80 33.70Q35.25 33.15 33.77 32.48Q32.30 31.80 31.13 30.75Q29.95 29.70 29.25 28.13Q28.55 26.55 28.55 24.25Q28.55 22.40 29.25 20.60Q29.95 18.80 31.40 17.35Q32.85 15.90 35.17 15.05Q37.50 14.20 40.65 14.20Q42.70 14.20 44.23 14.45Q45.75 14.70 47.13 15.20Q48.50 15.70 50.05 16.45L50.05 23.05Q48.85 22.20 47.50 21.42Q46.15 20.65 44.63 20.15Q43.10 19.65 41.30 19.60Q39.50 19.55 38.20 20Q36.90 20.45 36.20 21.35Q35.50 22.25 35.50 23.50Q35.50 25.05 36.38 25.97Q37.25 26.90 38.80 27.50Q40.35 28.10 42.30 28.70Q44.25 29.30 46 30.05Q47.75 30.80 49.08 31.88Q50.40 32.95 51.15 34.55Q51.90 36.15 51.90 38.45Q51.90 41.25 50.63 43.63Q49.35 46 46.75 47.42Q44.15 48.85 40.20 48.85ZM58.05 48.25L58.05 14.90L64.90 14.90L64.90 42.70L80.10 42.70L80.10 48.25L58.05 48.25ZM104.85 53.20L104.85 14.95L109.95 14.95L109.95 53.20L104.85 53.20ZM143.50 36.80L143.50 48.25L136.70 48.25L136.70 14.90L150.80 14.90Q156.60 14.90 159.82 17.55Q163.05 20.20 163.05 25.60Q163.05 31 159.82 33.90Q156.60 36.80 150.80 36.80L143.50 36.80M143.50 31.30L149.95 31.30Q151.70 31.30 152.82 30.90Q153.95 30.50 154.60 29.72Q155.25 28.95 155.52 28Q155.80 27.05 155.80 25.95Q155.80 24.80 155.52 23.80Q155.25 22.80 154.60 22Q153.95 21.20 152.82 20.77Q151.70 20.35 149.95 20.35L143.50 20.35L143.50 31.30ZM178.40 49Q176.25 49 174.35 48.60Q172.45 48.20 170.95 47.25Q169.45 46.30 168.57 44.67Q167.70 43.05 167.70 40.65Q167.70 38.05 168.75 36.27Q169.80 34.50 171.82 33.58Q173.85 32.65 176.80 32.65Q178.60 32.65 180.15 32.98Q181.70 33.30 182.95 33.88Q184.20 34.45 185 35.10L185.45 38.65Q184.40 37.95 182.77 37.52Q181.15 37.10 179.25 37.10Q176.60 37.10 175.30 37.95Q174 38.80 174 40.60Q174 41.80 174.70 42.65Q175.40 43.50 176.50 43.90Q177.60 44.30 178.80 44.30Q181.55 44.30 182.77 43.92Q184 43.55 184 42.30L184 32.40Q184 29.95 182.45 28.82Q180.90 27.70 178.10 27.70Q175.95 27.70 173.70 28.42Q171.45 29.15 170.05 30.30L170.05 24.55Q171.40 23.65 174.10 23.02Q176.80 22.40 179.90 22.40Q181.20 22.40 182.65 22.63Q184.10 22.85 185.45 23.40Q186.80 23.95 187.90 24.95Q189 25.95 189.65 27.42Q190.30 28.90 190.30 31L190.25 42.95Q190.25 45.25 188.77 46.58Q187.30 47.90 184.63 48.45Q181.95 49 178.40 49ZM202.25 34L212.05 23.05L219.80 23.05L205.55 37.35L202.25 34M203.60 48.25L197.30 48.25L197.30 13.50L203.70 13.50L203.60 48.25M206.80 31.50L220.75 48.25L212.65 48.25L202.30 35.80L206.80 31.50ZM235.05 49Q232.90 49 231 48.60Q229.10 48.20 227.60 47.25Q226.10 46.30 225.22 44.67Q224.35 43.05 224.35 40.65Q224.35 38.05 225.40 36.27Q226.45 34.50 228.47 33.58Q230.50 32.65 233.45 32.65Q235.25 32.65 236.80 32.98Q238.35 33.30 239.60 33.88Q240.85 34.45 241.65 35.10L242.10 38.65Q241.05 37.95 239.42 37.52Q237.80 37.10 235.90 37.10Q233.25 37.10 231.95 37.95Q230.65 38.80 230.65 40.60Q230.65 41.80 231.35 42.65Q232.05 43.50 233.15 43.90Q234.25 44.30 235.45 44.30Q238.20 44.30 239.42 43.92Q240.65 43.55 240.65 42.30L240.65 32.40Q240.65 29.95 239.10 28.82Q237.55 27.70 234.75 27.70Q232.60 27.70 230.35 28.42Q228.10 29.15 226.70 30.30L226.70 24.55Q228.05 23.65 230.75 23.02Q233.45 22.40 236.55 22.40Q237.85 22.40 239.30 22.63Q240.75 22.85 242.10 23.40Q243.45 23.95 244.55 24.95Q245.65 25.95 246.30 27.42Q246.95 28.90 246.95 31L246.90 42.95Q246.90 45.25 245.43 46.58Q243.95 47.90 241.28 48.45Q238.60 49 235.05 49ZM261.35 49Q258.65 49 256.75 48.42Q254.85 47.85 253.10 47.05L253.10 41.30Q254.25 42.05 255.52 42.73Q256.80 43.40 258.27 43.80Q259.75 44.20 261.50 44.20Q263.45 44.20 264.43 43.45Q265.40 42.70 265.40 41.55Q265.40 40.55 264.65 39.98Q263.90 39.40 262.70 39Q261.50 38.60 260.15 38.20Q258.90 37.90 257.63 37.40Q256.35 36.90 255.30 36.05Q254.25 35.20 253.63 33.88Q253 32.55 253 30.65Q253 28.40 253.90 26.85Q254.80 25.30 256.27 24.32Q257.75 23.35 259.47 22.92Q261.20 22.50 262.85 22.55Q265.75 22.60 267.50 23.20Q269.25 23.80 270.80 24.65L270.80 29.85Q269.05 28.90 267.43 28.13Q265.80 27.35 263.65 27.35Q261.70 27.35 260.63 28.02Q259.55 28.70 259.55 29.90Q259.55 30.95 260.20 31.57Q260.85 32.20 261.93 32.58Q263 32.95 264.25 33.30Q265.50 33.65 266.82 34.08Q268.15 34.50 269.32 35.27Q270.50 36.05 271.22 37.40Q271.95 38.75 271.95 40.90Q271.90 43.85 270.38 45.63Q268.85 47.40 266.45 48.20Q264.05 49 261.35 49ZM287.15 49Q285 49 283.10 48.60Q281.20 48.20 279.70 47.25Q278.20 46.30 277.32 44.67Q276.45 43.05 276.45 40.65Q276.45 38.05 277.50 36.27Q278.55 34.50 280.57 33.58Q282.60 32.65 285.55 32.65Q287.35 32.65 288.90 32.98Q290.45 33.30 291.70 33.88Q292.95 34.45 293.75 35.10L294.20 38.65Q293.15 37.95 291.52 37.52Q289.90 37.10 288 37.10Q285.35 37.10 284.05 37.95Q282.75 38.80 282.75 40.60Q282.75 41.80 283.45 42.65Q284.15 43.50 285.25 43.90Q286.35 44.30 287.55 44.30Q290.30 44.30 291.52 43.92Q292.75 43.55 292.75 42.30L292.75 32.40Q292.75 29.95 291.20 28.82Q289.65 27.70 286.85 27.70Q284.70 27.70 282.45 28.42Q280.20 29.15 278.80 30.30L278.80 24.55Q280.15 23.65 282.85 23.02Q285.55 22.40 288.65 22.40Q289.95 22.40 291.40 22.63Q292.85 22.85 294.20 23.40Q295.55 23.95 296.65 24.95Q297.75 25.95 298.40 27.42Q299.05 28.90 299.05 31L299 42.95Q299 45.25 297.52 46.58Q296.05 47.90 293.38 48.45Q290.70 49 287.15 49Z"/></g></g></svg>